<svg width="64" height="35" viewBox="0 0 64 35" fill="none" xmlns="http://www.w3.org/2000/svg">
<path d="M5.048 0.295998C6.136 0.295998 6.872 0.471998 7.256 0.823999C7.672 1.176 7.96 1.912 8.12 3.032L11.288 28.568C11.384 29.336 11.592 29.832 11.912 30.056C12.232 30.28 12.744 30.408 13.448 30.44L13.4 35H11.288C8.472 35 6.616 34.312 5.72 32.936C5.24 32.2 4.904 31.48 4.712 30.776C4.52 30.04 4.344 29.016 4.184 27.704L0.44 0.295998H5.048ZM17.576 35H14.6L19.832 3.032C19.96 1.944 20.232 1.224 20.648 0.871999C21.064 0.487998 21.816 0.295998 22.904 0.295998H27.464L22.664 28.664C22.44 29.88 22.248 30.776 22.088 31.352C21.96 31.928 21.72 32.552 21.368 33.224C21.016 33.896 20.536 34.36 19.928 34.616C19.32 34.872 18.536 35 17.576 35ZM31.1746 11.048H34.1026C35.5106 11.048 36.5666 11.4 37.2706 12.104C38.0066 12.776 38.3746 13.656 38.3746 14.744V35H32.9026C32.3906 35 31.9746 34.824 31.6546 34.472C31.3346 34.12 31.1746 33.656 31.1746 33.08V11.048ZM31.5106 0.823999C31.8626 0.471998 32.8866 0.295998 34.5826 0.295998C36.2786 0.295998 37.3026 0.471998 37.6546 0.823999C38.0066 1.144 38.1826 2.104 38.1826 3.704C38.1826 5.304 37.9906 6.28 37.6066 6.632C37.2546 6.984 36.2466 7.16 34.5826 7.16C32.9186 7.16 31.8946 6.984 31.5106 6.632C31.1586 6.28 30.9826 5.304 30.9826 3.704C30.9826 2.104 31.1586 1.144 31.5106 0.823999ZM50.9818 35H50.8858C47.7178 35 45.7658 34.456 45.0298 33.368C44.6778 32.856 44.3898 32.36 44.1658 31.88C43.9738 31.4 43.8458 30.648 43.7818 29.624C43.6218 27.768 43.5418 25.704 43.5418 23.432C43.5418 21.16 43.5578 19.528 43.5898 18.536C43.6218 17.512 43.7178 16.488 43.8778 15.464C44.0698 14.408 44.3098 13.656 44.5978 13.208C44.8858 12.728 45.3178 12.296 45.8938 11.912C46.4698 11.528 47.1418 11.288 47.9098 11.192C48.6778 11.064 49.6698 11 50.8858 11H50.9818V35ZM56.5498 27.416C58.6938 27.416 60.3258 27.416 61.4458 27.416C62.5658 27.416 63.1418 27.432 63.1738 27.464C63.2058 27.464 63.2538 27.48 63.3178 27.512C63.4138 27.512 63.4778 27.528 63.5098 27.56C63.5418 27.592 63.5738 27.64 63.6058 27.704C63.6378 27.736 63.6538 27.8 63.6538 27.896C63.7178 28.12 63.7498 28.296 63.7498 28.424V29.864C63.7498 33.288 62.0058 35 58.5178 35H52.4698V31.4H55.0618C55.7338 31.4 56.1498 31.304 56.3098 31.112C56.4698 30.888 56.5498 30.504 56.5498 29.96V27.416ZM52.4698 11H58.5178C62.0058 11 63.7498 12.712 63.7498 16.136V19.4C61.6058 19.4 59.9738 19.4 58.8538 19.4C57.7338 19.4 57.1578 19.4 57.1258 19.4C57.0938 19.368 57.0298 19.352 56.9338 19.352C56.8698 19.32 56.8218 19.288 56.7898 19.256C56.7578 19.224 56.7258 19.192 56.6938 19.16C56.6618 19.096 56.6458 19.032 56.6458 18.968C56.5818 18.712 56.5498 18.52 56.5498 18.392V16.04C56.5498 15.496 56.4698 15.128 56.3098 14.936C56.1498 14.712 55.7338 14.6 55.0618 14.6H52.4698V11Z" fill="#155197"/>
</svg>
